# xmcd CD database file
#
# Track frame offsets:
#	150
#	22702
#	43257
#	63170
#	88225
#	105342
#	127582
#	145287
#	160210
#	179160
#	206185
#	225057
#	256300
#	276592
#	294917
#
# Disc length: 4268 seconds
#
# Revision: 3
# Processed by: cddbd v1.5.2PL0 Copyright (c) Steve Scherf et al.
# Submitted via: CDex 1.70beta3
#
DISCID=ce10aa0f
DTITLE=坂本真綾 - everywhere (disc2)
DYEAR=2010
DGENRE=J-Pop
TTITLE0=マジックナンバー <123!mix>
TTITLE1=Remedy
TTITLE2=光あれ
TTITLE3=僕たちが恋をする理由
TTITLE4=ダニエル
TTITLE5=ユッカ
TTITLE6=blind summer fish
TTITLE7=gravity
TTITLE8=NO FEAR - あいすること
TTITLE9=30minutes night flight
TTITLE10=プラチナ
TTITLE11=Feel Myself
TTITLE12=ユニバース
TTITLE13=ポケットを空にして
TTITLE14=everywhere
EXTD=YEAR: 2010
EXTT0=
EXTT1=
EXTT2=
EXTT3=
EXTT4=
EXTT5=
EXTT6=
EXTT7=
EXTT8=
EXTT9=
EXTT10=
EXTT11=
EXTT12=
EXTT13=
EXTT14=
PLAYORDER=
